<svg xmlns="http://www.w3.org/2000/svg" xmlns:xlink="http://www.w3.org/1999/xlink" width="500" zoomAndPan="magnify" viewBox="0 0 375 374.999991" height="500" preserveAspectRatio="xMidYMid meet" version="1.0"><defs><clipPath id="bef2ae69f6"><path d="M 159.582031 181.347656 L 224.339844 181.347656 L 224.339844 204.8125 L 159.582031 204.8125 Z M 159.582031 181.347656 " clip-rule="nonzero"/></clipPath><clipPath id="0828f6d2b9"><path d="M 165.394531 174.371094 L 205 174.371094 L 205 204.8125 L 165.394531 204.8125 Z M 165.394531 174.371094 " clip-rule="nonzero"/></clipPath><clipPath id="43a44d5d63"><path d="M 166 174.371094 L 193 174.371094 L 193 202 L 166 202 Z M 166 174.371094 " clip-rule="nonzero"/></clipPath></defs><g clip-path="url(#bef2ae69f6)"><path fill="#8c52ff" d="M 193.167969 183.160156 C 197.4375 183.59375 201.269531 185.398438 205.347656 186.4375 C 210.292969 187.695312 215.066406 189.136719 220.292969 189.050781 C 220.996094 189.035156 223.925781 188.765625 224.339844 188.679688 C 218.746094 187.8125 213.207031 186.886719 207.753906 185.550781 C 202.632812 184.300781 197.5625 182.328125 192.261719 181.660156 C 188.585938 181.183594 185.238281 181.535156 181.347656 182.652344 C 173.09375 185.023438 165.515625 188.125 159.582031 193.96875 C 168.804688 187.726562 180.609375 181.878906 193.167969 183.160156 Z M 200.027344 195.273438 C 194.046875 193.148438 178.421875 195.273438 170.898438 204.8125 C 170.898438 204.8125 186.019531 192.582031 201.402344 197.027344 C 214.78125 200.894531 222.78125 199.082031 222.78125 199.082031 L 220.492188 198.582031 C 220.492188 198.582031 207.695312 197.992188 200.027344 195.273438 Z M 169.433594 198.804688 C 176.953125 189.265625 193.585938 187.753906 199.625 189.699219 C 207.765625 192.320312 218.445312 192.554688 218.445312 192.554688 L 221.316406 193.070312 C 221.316406 193.070312 215.632812 194.769531 199.933594 191.019531 C 184.363281 187.296875 169.433594 198.804688 169.433594 198.804688 " fill-opacity="1" fill-rule="nonzero"/></g><path fill="#8c52ff" d="M 188.449219 183.355469 C 188.449219 183.355469 188.15625 185.660156 186.878906 186.160156 C 186.878906 186.160156 188.359375 186.867188 188.464844 188.363281 C 188.472656 188.460938 188.96875 186.347656 190.175781 186.027344 C 190.175781 186.027344 188.625 185.476562 188.449219 183.355469 Z M 205.714844 187.511719 C 205.703125 187.3125 204.695312 191.589844 202.253906 192.238281 C 202.253906 192.238281 205.390625 193.351562 205.746094 197.648438 C 205.746094 197.648438 206.332031 193.289062 208.527344 192.671875 C 208.527344 192.671875 205.933594 190.539062 205.714844 187.511719 Z M 195.367188 197.648438 L 196.671875 196.480469 L 198.726562 177.988281 L 197.976562 176.28125 Z M 180.59375 178.300781 L 182.066406 187.769531 L 183.542969 187.289062 L 181.675781 177.878906 Z M 167.519531 181.445312 L 168.417969 193.972656 L 169.167969 193.183594 L 168.835938 181.457031 Z M 173.875 189.015625 C 173.5625 188.792969 172.992188 188.664062 172.644531 188.859375 C 172.53125 188.867188 172.425781 188.90625 172.335938 188.996094 C 171.871094 189.464844 171.890625 190.1875 172.371094 190.632812 C 172.90625 191.125 173.75 191.164062 174.257812 190.617188 C 174.742188 190.101562 174.367188 189.363281 173.875 189.015625 Z M 217 197.523438 C 216.492188 198.070312 215.648438 198.03125 215.113281 197.535156 C 214.632812 197.09375 214.613281 196.367188 215.078125 195.902344 C 215.167969 195.8125 215.273438 195.773438 215.386719 195.765625 C 215.738281 195.566406 216.304688 195.699219 216.617188 195.921875 C 217.109375 196.269531 217.484375 197.003906 217 197.523438 " fill-opacity="1" fill-rule="nonzero"/><g clip-path="url(#0828f6d2b9)"><path fill="#8c52ff" d="M 186.957031 200.949219 C 186.3125 200.855469 185.644531 201.15625 185.207031 201.640625 C 184.765625 202.125 184.535156 202.769531 184.453125 203.417969 C 184.417969 203.6875 184.410156 203.964844 184.492188 204.222656 C 184.578125 204.480469 184.769531 204.714844 185.03125 204.785156 C 185.207031 204.835938 185.394531 204.8125 185.566406 204.757812 C 186.054688 204.613281 186.460938 204.261719 186.753906 203.847656 C 187.046875 203.433594 187.238281 202.957031 187.410156 202.476562 C 187.511719 202.195312 187.609375 201.890625 187.546875 201.597656 C 187.488281 201.300781 187.253906 200.894531 186.957031 200.949219 Z M 204.671875 176 C 204.332031 175.441406 203.75 175.027344 203.113281 174.757812 C 201.664062 174.144531 199.871094 174.269531 198.542969 175.078125 C 198.136719 175.324219 197.75 175.664062 197.667969 176.101562 C 197.738281 176.5 197.882812 176.664062 198.125 177.003906 C 198.636719 177.710938 199.445312 178.21875 200.320312 178.5 C 201.199219 178.78125 202.144531 178.847656 203.074219 178.796875 C 203.660156 178.765625 204.300781 178.652344 204.660156 178.230469 C 204.796875 178.066406 204.878906 177.867188 204.929688 177.667969 C 205.070312 177.109375 204.976562 176.5 204.671875 176 Z M 184.390625 185.914062 C 184.074219 185.542969 183.601562 185.40625 183.136719 185.449219 C 183.101562 185.4375 183.0625 185.425781 183.015625 185.421875 C 181.96875 185.351562 181.179688 185.988281 180.535156 186.734375 C 179.964844 187.394531 179.5 188.136719 179.148438 188.9375 C 178.792969 189.742188 178.570312 190.609375 178.476562 191.484375 C 178.394531 192.25 178.289062 193.328125 178.792969 193.976562 C 179.332031 194.671875 180.378906 194.507812 181.09375 194.21875 C 181.839844 193.917969 182.535156 193.375 183.078125 192.78125 C 184.148438 191.605469 184.796875 190.09375 184.917969 188.503906 C 184.984375 187.65625 184.972656 186.59375 184.390625 185.914062 Z M 171.085938 192.84375 C 171.195312 193.378906 171.019531 193.929688 170.832031 194.445312 C 170.519531 195.316406 170.171875 196.179688 169.636719 196.933594 C 169.105469 197.6875 168.367188 198.328125 167.484375 198.59375 C 167.167969 198.6875 166.824219 198.734375 166.507812 198.644531 C 166.035156 198.511719 165.683594 198.085938 165.53125 197.617188 C 165.375 197.148438 165.390625 196.640625 165.453125 196.152344 C 165.601562 194.976562 166.027344 193.804688 166.824219 192.921875 C 167.625 192.046875 168.835938 191.5 170.011719 191.667969 C 170.550781 191.570312 170.976562 192.308594 171.085938 192.84375 " fill-opacity="1" fill-rule="nonzero"/></g><g clip-path="url(#43a44d5d63)"><path fill="#8c52ff" d="M 186.003906 193.285156 C 186.15625 193.585938 186.453125 198.753906 186.488281 200.949219 C 186.644531 200.925781 186.800781 200.925781 186.957031 200.949219 C 187.253906 200.894531 187.488281 201.300781 187.546875 201.597656 L 186.980469 194.09375 C 189.050781 194.054688 191.007812 193.285156 191.007812 193.285156 L 191.40625 195.496094 L 192.101562 195.414062 L 192.230469 192.097656 C 190.519531 192.285156 185.808594 192.90625 186.003906 193.285156 Z M 181.105469 174.476562 L 182.066406 177.242188 C 182.066406 177.242188 181.675781 180.875 166.660156 182.066406 L 167.054688 180.652344 C 167.054688 180.652344 176.210938 179.652344 181.105469 174.476562 " fill-opacity="1" fill-rule="nonzero"/></g></svg>